<mxfile host="app.diagrams.net" modified="2024-10-23T23:15:21.563Z" agent="Mozilla/5.0 (Windows NT 10.0; Win64; x64) AppleWebKit/537.36 (KHTML, like Gecko) Chrome/128.0.0.0 Safari/537.36 OPR/114.0.0.0" version="24.4.10" etag="AyTVOTeAY2qiMPGbjZAT" type="github">
  <diagram name="Page-1" id="r31jCf8ahgXPqf0NUjP_">
    <mxGraphModel>
      <root>
        <mxCell id="0" />
        <mxCell id="1" parent="0" />
      </root>
    </mxGraphModel>
  </diagram>
</mxfile>
